<svg version="1.1" id="Layer_1" xmlns="http://www.w3.org/2000/svg" xmlns:xlink="http://www.w3.org/1999/xlink" x="0px" y="0px"
	 width="100%" viewBox="0 0 524 244" enable-background="new 0 0 524 244" xml:space="preserve">
<path fill="#000000" opacity="1.000000" stroke="none" 
	d="
M393.000000,245.000000 
	C263.541992,245.000000 134.583954,244.985046 5.626004,245.079254 
	C2.111101,245.081818 0.878535,244.660965 0.886401,240.628647 
	C1.039480,162.154495 1.034638,83.679909 0.892495,5.205711 
	C0.885748,1.481062 1.803948,0.910754 5.291768,0.912776 
	C177.069138,1.012343 348.846558,1.008841 520.623962,0.933172 
	C523.880066,0.931737 525.133118,1.159920 525.124634,5.121451 
	C524.957520,83.762161 524.969238,162.403366 525.101379,241.044220 
	C525.107300,244.555374 524.288696,245.102402 520.957947,245.091522 
	C478.472321,244.952698 435.986084,245.000000 393.000000,245.000000 
z"/>
<path fill="#36281E" opacity="1.000000" stroke="none" 
	d="
M60.025322,142.312042 
	C62.773262,134.142609 65.580688,126.318573 68.490715,118.532883 
	C69.169930,116.715675 69.764214,114.432297 72.297470,114.494225 
	C74.776222,114.554810 75.280289,116.803246 76.031212,118.632416 
	C86.692375,144.602036 97.301079,170.593369 108.044998,196.528687 
	C110.429474,202.284714 112.466682,208.490646 119.677124,210.580414 
	C117.884552,212.546646 115.941872,211.848083 114.233383,211.936340 
	C104.462959,212.441010 94.639107,211.015671 84.892380,212.789307 
	C83.599579,213.024551 82.135933,212.317963 81.466194,211.250778 
	C80.833054,210.241913 82.197327,209.642136 82.827950,208.933365 
	C85.610474,205.806046 86.686295,202.649689 84.607468,198.409012 
	C82.651131,194.418198 81.656342,189.956009 80.159866,185.337036 
	C79.541840,183.230255 77.487907,182.955215 76.423431,181.203979 
	C72.753311,176.983978 71.621498,171.905716 69.545944,167.306702 
	C66.419746,160.379639 63.900883,153.198868 61.129089,145.753754 
	C60.359077,144.615372 60.735912,143.509171 60.025322,142.312042 
z"/>
<path fill="#36281E" opacity="1.000000" stroke="none" 
	d="
M428.889526,118.034065 
	C429.157013,117.759712 429.339569,117.556389 429.467346,117.507919 
	C431.989502,117.876579 435.656281,116.340889 435.142944,121.606514 
	C429.163269,131.507477 427.905121,142.063019 428.063904,152.789841 
	C428.255432,165.726685 426.804535,178.764084 430.004852,191.563583 
	C431.103119,195.956024 432.442596,200.207581 435.676758,203.979111 
	C436.202240,204.318878 436.454926,204.438660 436.366943,204.803101 
	C436.233948,205.318237 436.441681,205.588715 436.854126,206.014816 
	C437.222870,206.294464 437.386871,206.418503 437.755737,206.773132 
	C438.208832,207.211899 438.444092,207.433853 438.824860,207.853333 
	C439.523315,208.886932 440.082062,209.731491 439.456146,211.211365 
	C424.909424,209.502838 414.686523,201.523972 407.822327,189.319214 
	C399.382904,174.313705 399.553223,158.282074 404.652649,142.434570 
	C406.587524,136.421677 410.763916,131.038696 415.625793,126.154373 
	C420.475525,123.972145 423.833618,119.950432 428.889526,118.034065 
z"/>
<path fill="#35281E" opacity="1.000000" stroke="none" 
	d="
M189.743698,111.779816 
	C191.645706,108.602364 189.025162,106.021660 188.370728,103.061058 
	C187.933655,101.083878 185.697083,98.215553 187.921890,97.243690 
	C190.397583,96.162239 190.508514,99.833046 191.650208,101.442261 
	C193.342575,103.827690 193.144958,107.303177 196.309021,109.018036 
	C197.903625,105.737671 199.867081,109.289589 201.718628,108.365387 
	C202.216324,107.882095 202.418243,107.610611 202.808441,107.168304 
	C207.178772,107.046661 206.755707,110.796410 208.030609,113.626511 
	C208.059799,114.465813 208.049866,114.891762 208.048141,115.637184 
	C207.824371,117.580879 209.819199,117.923088 209.989609,119.655045 
	C209.657196,120.818054 209.325195,121.641426 208.846069,122.764771 
	C207.749771,132.703247 208.290146,142.350876 208.646088,152.394302 
	C208.812302,153.293106 208.853973,153.794220 208.897278,154.672653 
	C208.833328,157.520035 210.478165,158.885544 212.417221,160.519012 
	C212.713211,161.366089 212.702362,161.881790 212.536758,162.788269 
	C212.397232,163.980499 212.235428,164.765457 211.914963,165.936554 
	C209.082428,177.443985 210.206360,188.435226 212.867126,199.810226 
	C212.861328,202.213440 210.195801,202.285507 209.991562,204.601501 
	C209.580551,205.871399 208.922409,206.334961 207.637543,206.523743 
	C205.999069,206.574783 204.735825,206.515884 203.358337,207.534637 
	C200.494141,208.925369 198.044495,210.384750 195.414230,211.353943 
	C192.327576,212.491318 190.125900,211.579575 190.071243,207.842957 
	C190.020370,204.364334 190.060486,200.884445 190.054031,197.405106 
	C190.036530,187.959000 189.214645,178.505096 189.211884,169.106735 
	C189.208282,156.863220 190.358490,144.598801 190.099396,132.315598 
	C190.047043,129.834061 189.839218,127.371490 189.578445,124.895042 
	C189.218430,121.476082 188.242416,118.818413 184.973007,117.291771 
	C183.853958,116.769241 183.124481,115.862762 183.769287,114.207397 
	C186.377090,114.553566 186.742386,110.307655 189.743698,111.779816 
z"/>
<path fill="#35281E" opacity="1.000000" stroke="none" 
	d="
M321.260193,151.985626 
	C325.459229,164.259354 316.807892,169.104156 309.185852,167.764832 
	C305.686218,167.149872 302.442566,165.846893 301.495605,161.752487 
	C300.791901,158.709732 299.146179,158.153259 297.043243,160.480835 
	C293.632751,164.255676 290.333405,167.890762 290.840759,173.823227 
	C291.561127,182.245956 290.366394,190.762115 291.769867,199.207474 
	C292.318176,202.506927 292.676971,205.750366 294.854034,208.488220 
	C296.652222,210.749649 295.659607,211.863373 293.131866,211.880539 
	C285.647552,211.931320 278.161499,211.950775 270.678436,211.833359 
	C268.254425,211.795334 266.954315,210.609619 269.195984,208.493805 
	C271.795349,206.040390 272.019684,203.000229 272.011444,199.786972 
	C271.981537,188.136871 271.897003,176.486115 271.993469,164.836945 
	C272.021759,161.425247 271.187286,158.710068 268.340271,156.607376 
	C265.087952,154.205368 266.310242,152.422104 269.509033,151.539734 
	C274.783020,150.084915 280.115570,148.839951 285.432770,147.545044 
	C289.227509,146.620880 291.190735,147.933472 290.957947,152.061005 
	C290.829163,154.344879 290.934814,156.641998 290.934814,159.113129 
	C293.883087,158.757202 294.502563,156.626297 295.709106,155.166794 
	C299.220856,150.918762 303.565765,148.012711 309.067383,147.158112 
	C313.852875,146.414764 317.968567,147.725052 321.260193,151.985626 
z"/>
<path fill="#35281D" opacity="1.000000" stroke="none" 
	d="
M149.110809,171.559631 
	C149.404861,181.626831 149.658112,191.267700 150.092514,200.900421 
	C150.219711,203.721298 151.009979,206.460480 152.948486,208.703201 
	C154.725006,210.758545 153.727692,211.825531 151.526535,211.854416 
	C143.199142,211.963745 134.869629,211.917328 126.540901,211.916489 
	C125.291855,211.916351 124.207809,211.672470 124.127068,210.070038 
	C124.031593,208.175186 125.284256,209.141769 126.105965,209.061020 
	C128.383087,208.837219 128.752136,207.106506 129.378540,205.267120 
	C131.921967,197.798676 130.993561,190.108368 130.996033,182.501434 
	C130.998199,175.861145 131.557236,169.194855 130.301758,162.568893 
	C129.801743,159.930038 129.028152,157.788757 126.379890,156.696320 
	C125.098404,156.167694 124.033104,155.414474 124.246292,153.734619 
	C124.436462,152.236115 125.599625,151.968506 126.734161,151.699768 
	C132.886719,150.242294 139.032120,148.750320 145.207275,147.394592 
	C148.005585,146.780228 149.751877,147.897461 149.860641,150.966354 
	C149.901947,152.131607 149.880722,153.303024 149.997787,154.460526 
	C150.108109,155.551392 149.628754,157.114166 151.106644,157.442200 
	C152.362244,157.720871 153.043060,156.407944 153.788528,155.523895 
	C158.134140,150.370422 163.150803,146.567169 170.402893,147.091934 
	C175.465836,147.458282 178.793045,150.003906 180.283508,154.829224 
	C181.814316,159.785248 179.443939,163.802643 176.220673,166.921509 
	C172.631653,170.394302 163.730423,167.733902 160.511230,162.743835 
	C157.667236,158.335373 155.447571,158.284225 153.093048,162.892426 
	C151.711823,165.595718 148.973495,167.685181 149.110809,171.559631 
z"/>
<path fill="#36281E" opacity="1.000000" stroke="none" 
	d="
M346.424438,179.001617 
	C348.296417,184.639420 348.956329,190.385895 353.103241,194.743896 
	C360.622253,202.645569 373.682922,203.659851 382.584412,196.915894 
	C384.049988,195.805557 385.513123,193.086075 387.531372,194.959473 
	C389.783905,197.050339 387.496338,199.384644 386.192993,201.019287 
	C378.031921,211.254578 367.036255,214.419357 354.517456,212.708740 
	C342.939636,211.126678 335.182312,204.186539 330.658997,193.713669 
	C325.276794,181.252213 327.926392,165.543350 336.682526,157.175110 
	C337.801086,156.272461 338.978058,156.106216 339.943848,155.012146 
	C340.166840,154.521454 340.267273,154.334961 340.582184,154.110077 
	C341.691040,153.209503 343.134613,152.932663 343.800476,151.276123 
	C344.006805,151.024063 343.989197,150.992447 344.006409,150.997986 
	C344.428772,150.560455 344.996552,150.510986 345.756561,150.217468 
	C345.982117,150.054153 346.000183,150.011734 346.023010,150.015015 
	C346.232788,149.894836 346.419739,149.771362 346.876068,149.848816 
	C347.527740,149.901154 347.910034,149.752579 348.447021,149.593018 
	C349.603882,149.575439 350.605957,149.469147 351.976318,149.678131 
	C352.553284,149.922485 352.762085,150.069885 353.197937,150.528809 
	C353.929993,151.747055 354.366333,152.691406 355.088898,153.927155 
	C352.554657,160.771591 350.681641,167.506424 349.067535,174.708405 
	C348.146545,176.289963 346.811310,177.134216 346.424438,179.001617 
z"/>
<path fill="#34281D" opacity="1.000000" stroke="none" 
	d="
M210.400299,161.207031 
	C208.010986,159.623810 206.265839,158.126358 208.672974,155.255493 
	C219.012634,146.853638 230.107010,144.267593 242.334183,149.654602 
	C249.176239,152.669037 253.708298,158.366409 256.448822,164.992920 
	C259.935059,173.422470 260.576447,182.422775 258.186890,191.344070 
	C254.779266,204.066101 246.314453,210.607040 230.400528,212.771774 
	C229.419113,212.283966 228.774811,211.871429 228.465317,210.771210 
	C227.942612,207.815552 229.754242,206.046143 230.772781,204.029236 
	C237.795685,190.122711 237.483078,175.976517 231.748611,161.875000 
	C229.324127,155.913010 221.265274,154.786697 215.489624,158.869064 
	C214.050140,159.886536 213.354050,162.611038 210.400299,161.207031 
z"/>
<path fill="#35281D" opacity="1.000000" stroke="none" 
	d="
M492.385742,175.616516 
	C488.690613,177.793259 488.545197,181.426025 488.231415,184.553528 
	C487.621948,190.628860 486.281128,196.700775 487.060974,202.860672 
	C487.519745,206.484085 486.100067,208.465790 482.500824,209.229263 
	C477.639130,210.260529 472.843353,211.609589 467.436829,212.045807 
	C465.056244,211.819168 464.087677,210.874619 464.905975,208.436279 
	C469.992004,198.519684 468.631348,188.778809 465.804260,179.059921 
	C464.677917,175.187698 460.072296,176.370468 456.529053,173.096283 
	C468.909088,173.096283 480.059082,173.096283 491.610168,173.131470 
	C493.105377,173.657333 493.950806,174.228470 492.385742,175.616516 
z"/>
<path fill="#788D3F" opacity="1.000000" stroke="none" 
	d="
M194.764420,69.144394 
	C189.333450,62.046513 187.323120,54.552498 189.886551,46.158825 
	C192.039948,39.107746 196.819397,33.817238 201.913910,28.810755 
	C202.976089,27.766953 205.231339,27.162720 204.842102,29.793428 
	C203.719025,37.383942 208.482803,42.768314 211.389389,48.858860 
	C214.386993,55.140144 212.994110,63.403194 208.019135,68.412910 
	C206.655853,69.785721 205.411652,71.346130 203.844406,72.433609 
	C199.665833,75.333008 197.488022,71.810448 194.764420,69.144394 
z"/>
<path fill="#788E3E" opacity="1.000000" stroke="none" 
	d="
M255.954468,124.931168 
	C246.783081,125.491547 241.630676,120.185745 237.472534,113.587662 
	C236.130569,111.458221 236.429398,109.546638 238.855392,107.367516 
	C248.454208,98.745422 263.737793,98.289795 273.439575,108.947533 
	C276.081909,111.850243 279.259491,114.302193 281.017975,118.674889 
	C275.088318,118.847336 269.643890,120.237175 264.232758,121.934502 
	C261.534637,122.780815 259.876617,126.302269 255.954468,124.931168 
z"/>
<path fill="#79903C" opacity="1.000000" stroke="none" 
	d="
M158.606812,55.743004 
	C160.183533,56.096104 161.437454,55.933453 162.674866,57.080025 
	C164.671432,58.625435 166.394150,59.934643 168.762726,60.803211 
	C169.017593,61.006050 168.978546,61.014412 168.987244,60.996437 
	C171.989029,65.494995 174.360779,70.300270 175.748444,75.559242 
	C177.047287,80.481636 176.042191,83.854393 172.284546,86.569672 
	C171.248886,86.849724 170.480057,86.901329 169.328949,86.893509 
	C167.496002,86.300735 165.984680,86.379578 164.201599,86.223206 
	C163.923218,86.055061 163.992584,86.046593 163.995956,86.081367 
	C162.375092,84.732697 160.245071,84.414330 158.146790,83.242859 
	C153.801788,80.876083 151.665222,77.468636 150.958649,72.942047 
	C150.530975,70.202202 149.678253,67.528709 148.977097,64.424797 
	C148.455383,62.653748 148.223053,61.207993 147.831223,59.834660 
	C147.379349,58.250839 145.146393,56.752796 146.759186,55.150555 
	C148.182175,53.736897 150.504288,54.307274 152.377441,54.868988 
	C154.300659,55.445705 156.232849,55.507050 158.606812,55.743004 
z"/>
<path fill="#33281E" opacity="1.000000" stroke="none" 
	d="
M352.175018,150.836945 
	C351.084595,150.656158 350.169159,150.312317 348.927734,149.775238 
	C359.029724,144.768433 369.464630,145.757065 379.118439,151.060806 
	C387.944489,155.909775 390.612305,164.746109 390.871552,174.371170 
	C390.955719,177.494797 389.377075,178.974625 386.300781,178.903076 
	C382.482727,178.814285 378.665344,178.698303 374.445465,178.515167 
	C373.832458,178.323273 373.621674,178.210312 373.143005,177.859833 
	C372.639557,177.209991 372.427399,176.785934 372.053436,176.047989 
	C371.193481,175.063141 370.741730,174.263672 370.544006,172.961365 
	C369.667847,168.911179 369.395081,165.092606 368.276459,161.447021 
	C366.053925,154.203613 362.689819,152.494354 355.496521,154.913086 
	C354.801758,155.146713 354.214478,154.951080 353.432617,154.245392 
	C352.823456,153.237106 352.487946,152.436493 352.076233,151.317947 
	C352.000000,151.000000 352.350037,150.673904 352.175018,150.836945 
z"/>
<path fill="#79903C" opacity="1.000000" stroke="none" 
	d="
M225.448120,73.655479 
	C225.289246,72.870178 225.189682,72.536835 225.160309,71.943825 
	C228.807220,70.702156 228.940552,67.115639 230.756287,64.295227 
	C230.959854,63.942799 230.993652,63.993904 230.967224,63.978416 
	C232.219406,63.215050 233.624802,62.646824 234.763306,61.165276 
	C234.968277,60.920567 234.983948,60.977509 234.956802,60.965874 
	C238.190186,59.962688 241.414291,58.874622 244.760757,57.155891 
	C246.146194,56.664810 247.246445,56.118969 248.344086,56.124199 
	C251.091583,56.137291 254.628937,54.765076 256.352386,56.795437 
	C257.728851,58.417038 254.713974,60.711308 253.644257,62.644337 
	C250.510559,68.307152 250.989151,75.090088 247.429718,80.849319 
	C244.801254,82.579559 242.382599,83.898544 240.145508,85.642853 
	C236.195541,88.722717 231.161835,87.045677 226.604935,87.282524 
	C225.187668,87.356186 224.149323,85.294128 224.561935,83.840820 
	C225.476700,80.619003 224.319946,77.255157 225.448120,73.655479 
z"/>
<path fill="#31271D" opacity="1.000000" stroke="none" 
	d="
M435.311218,121.848953 
	C434.008209,120.062988 432.038574,119.079414 429.907959,117.689346 
	C435.395386,114.391304 441.429413,112.802376 448.138336,112.838356 
	C459.684784,112.900276 470.983643,113.756607 482.101807,117.286324 
	C485.049194,118.222038 485.822601,119.409225 485.854126,121.898155 
	C485.932068,128.054367 485.996429,134.211578 485.961182,140.367798 
	C485.952362,141.911972 486.398804,144.103317 483.946594,144.215363 
	C481.798798,144.313492 479.585693,144.051178 478.745178,141.365677 
	C477.407196,137.090897 476.228821,132.781204 474.363068,128.659241 
	C468.269958,115.197853 451.069458,113.194984 441.331238,117.040756 
	C439.025665,117.951271 436.911224,119.369003 435.311218,121.848953 
z"/>
<path fill="#35281E" opacity="1.000000" stroke="none" 
	d="
M50.417198,183.143921 
	C44.841682,187.030319 46.070843,192.593781 46.228142,197.664490 
	C46.342331,201.345596 48.209038,204.591202 50.802597,207.713043 
	C51.899380,208.936829 52.609707,209.919693 51.304100,211.547134 
	C43.531212,211.859436 36.092628,211.865982 28.654335,211.822556 
	C28.046532,211.819000 27.440710,211.474884 26.340927,211.137985 
	C36.096298,202.867828 40.498142,191.930603 44.170712,180.553635 
	C44.549866,179.379089 45.639294,178.433823 46.660767,177.140259 
	C48.030346,176.595459 48.939308,177.053329 50.129997,177.878281 
	C52.002476,178.931351 51.303104,180.360825 51.301456,181.963593 
	C51.069195,182.548309 50.912907,182.753387 50.417198,183.143921 
z"/>
<path fill="#79913A" opacity="1.000000" stroke="none" 
	d="
M125.746803,102.286087 
	C127.062843,101.310562 128.175552,100.662231 129.619263,99.960991 
	C138.163193,98.443504 146.227585,99.178482 154.617599,101.753250 
	C155.053345,101.962265 155.005890,101.993805 155.014938,101.966789 
	C155.268509,102.289909 155.468521,102.664185 155.851105,103.295052 
	C156.230362,103.678986 156.389481,103.826721 156.781967,104.207123 
	C157.166656,104.602737 157.317993,104.765686 157.638596,105.222519 
	C157.870300,105.737724 157.932739,105.959068 158.015472,106.529541 
	C156.629486,111.099350 156.321136,115.910065 151.487961,118.628555 
	C148.683197,119.335960 146.693558,115.178673 143.670898,118.260162 
	C139.789001,120.211716 136.780182,119.244438 134.592926,116.170296 
	C133.438141,114.547295 132.133575,113.279701 130.440063,112.356499 
	C124.373093,109.049194 124.368736,109.057190 125.746803,102.286087 
z"/>
<path fill="#788C41" opacity="1.000000" stroke="none" 
	d="
M152.263306,49.040329 
	C147.743912,47.041431 144.949402,44.028011 144.012772,39.474308 
	C143.210495,35.573730 140.970688,32.316540 138.868500,28.927084 
	C150.253662,25.810112 161.407532,33.175110 162.458389,44.125401 
	C162.920288,48.938717 159.102936,50.895237 152.263306,49.040329 
z"/>
<path fill="#788C40" opacity="1.000000" stroke="none" 
	d="
M140.077286,73.599365 
	C144.707214,75.837059 146.676895,79.911690 149.132629,83.601410 
	C150.238998,85.263710 148.700043,85.661156 148.077637,86.330505 
	C143.839569,90.888077 136.347336,91.068748 131.185257,86.513496 
	C127.678719,83.419174 124.532532,79.916519 120.860428,76.230293 
	C127.140587,72.626015 133.180069,71.315338 140.077286,73.599365 
z"/>
<path fill="#788C40" opacity="1.000000" stroke="none" 
	d="
M235.208984,36.519863 
	C235.037064,39.506382 234.154236,41.910465 234.489716,44.783520 
	C235.072510,49.774387 229.033600,55.864555 223.820221,56.858551 
	C220.657135,57.461632 218.534302,56.755718 217.948090,52.852230 
	C216.318085,41.997997 223.441010,32.585800 234.417252,32.166431 
	C238.396729,32.014389 235.263687,34.741768 235.208984,36.519863 
z"/>
<path fill="#788C41" opacity="1.000000" stroke="none" 
	d="
M183.729675,48.417099 
	C181.597794,54.625793 180.723114,55.180466 175.234589,52.545834 
	C170.333328,50.193108 166.675720,46.755634 166.975662,40.537739 
	C167.125824,37.425106 167.557312,34.106544 164.397675,31.711901 
	C163.531815,31.055677 163.844421,29.248104 164.200485,28.278809 
	C174.493423,31.129911 184.832855,34.076881 183.729675,48.417099 
z"/>
<path fill="#788C43" opacity="1.000000" stroke="none" 
	d="
M125.631577,101.801071 
	C127.166779,105.186569 127.692184,108.778816 132.275360,109.459770 
	C133.875137,109.697456 134.813736,111.965012 135.414368,113.663002 
	C136.627899,117.093781 138.832626,118.279984 142.643951,117.082649 
	C145.327515,116.796555 147.592224,116.756821 148.997574,119.619621 
	C145.056656,121.804070 140.883896,121.826660 137.295105,119.507629 
	C131.036224,115.463234 124.567245,112.072334 116.735962,110.613205 
	C118.335709,107.656013 120.486992,105.869102 122.660072,104.189171 
	C124.752190,102.571831 124.353745,99.461075 123.107651,99.425201 
	C116.910393,99.246811 115.465218,92.829247 110.536713,91.108032 
	C117.360634,85.692116 124.528740,86.156609 128.551819,92.158241 
	C130.149384,94.541481 131.120926,96.988953 127.223747,98.407181 
	C125.876099,98.897606 124.321625,99.611084 125.631577,101.801071 
z"/>
<path fill="#788C41" opacity="1.000000" stroke="none" 
	d="
M213.733032,13.823344 
	C215.944031,11.289711 218.339386,9.619950 221.714157,7.947730 
	C221.432327,13.763755 223.662460,18.684673 224.833603,23.852657 
	C225.883316,28.484882 221.668701,34.430111 217.130920,36.451260 
	C214.491653,37.626808 213.403610,36.066952 212.290695,34.448563 
	C207.498917,27.480478 207.840469,22.170475 213.733032,13.823344 
z"/>
<path fill="#798E40" opacity="1.000000" stroke="none" 
	d="
M261.770050,62.201103 
	C263.319733,54.523731 268.149658,50.227535 275.406097,49.993549 
	C277.559601,49.924110 279.730316,50.148724 281.870026,49.966782 
	C283.531097,49.825539 285.825043,49.803875 285.874481,51.247204 
	C285.920410,52.588257 286.037476,54.731930 283.539215,55.973152 
	C281.560242,56.956379 280.562134,60.052135 279.295807,62.303921 
	C276.299835,67.631248 270.916809,69.857109 264.385559,68.012192 
	C262.494904,66.394058 261.082489,64.904366 261.770050,62.201103 
z"/>
<path fill="#798E40" opacity="1.000000" stroke="none" 
	d="
M269.260742,89.847977 
	C264.210388,93.538834 259.380157,92.464165 254.754898,89.814140 
	C252.028839,88.252266 253.113571,85.619522 254.398132,83.915260 
	C262.230194,73.524086 269.621887,72.203911 281.444855,79.077980 
	C279.171387,81.092110 276.988129,83.026321 274.457214,85.003281 
	C271.735046,85.706886 270.993561,88.038658 269.260742,89.847977 
z"/>
<path fill="#788A44" opacity="1.000000" stroke="none" 
	d="
M245.012177,56.566994 
	C243.582474,62.149426 238.906876,59.829159 235.317047,60.954304 
	C236.886642,59.101738 239.411880,58.438763 241.851212,57.542881 
	C244.125122,56.707745 244.904816,55.262291 243.182693,53.081257 
	C240.435532,49.602070 242.212234,43.112911 246.486832,41.302605 
	C249.071564,40.207962 251.830765,39.641064 254.669052,40.010956 
	C256.055542,40.191643 258.168213,39.186268 258.622894,40.865772 
	C258.929657,41.999001 257.860931,43.829189 256.913879,44.918404 
	C253.647995,48.674511 251.897842,54.338818 245.515732,54.433273 
	C245.327682,54.436058 245.156357,55.568466 245.012177,56.566994 
z"/>
<path fill="#788A46" opacity="1.000000" stroke="none" 
	d="
M162.512878,125.029144 
	C160.272583,125.137627 159.841339,124.049370 160.077667,122.495834 
	C160.627228,118.883171 163.799500,116.475204 164.348434,112.667725 
	C164.623688,110.758476 176.574951,112.288773 177.578049,114.377953 
	C178.550156,116.402550 176.976608,117.827095 176.166061,119.352974 
	C174.086975,123.266922 166.426895,126.487579 162.512878,125.029144 
z"/>
<path fill="#798C45" opacity="1.000000" stroke="none" 
	d="
M267.399628,98.287918 
	C271.813202,91.003258 280.812408,89.911873 286.158661,95.736450 
	C286.885010,96.527763 288.544861,97.252899 287.619629,98.439102 
	C286.798126,99.492317 284.804260,100.802101 283.986969,100.453476 
	C282.047729,99.626282 281.651520,101.107529 280.728485,101.803802 
	C275.783478,105.534019 270.715973,104.346321 267.399628,98.287918 
z"/>
<path fill="#778A41" opacity="1.000000" stroke="none" 
	d="
M223.201813,121.446167 
	C222.589066,119.109299 220.043198,116.818581 222.443451,115.130310 
	C225.381699,113.063644 228.963669,113.674171 232.361008,114.763359 
	C237.065628,116.271660 237.123550,121.549278 240.274063,124.341713 
	C241.081390,125.057281 239.573105,125.941650 239.119476,125.812157 
	C234.598145,124.521652 229.926422,125.496170 225.415726,124.723457 
	C224.583008,124.580803 224.031265,122.797951 223.201813,121.446167 
z"/>
<path fill="#788A43" opacity="1.000000" stroke="none" 
	d="
M204.780884,86.323921 
	C205.879959,79.277565 210.818329,76.627762 216.567474,74.556229 
	C218.110733,77.741631 213.772049,81.958710 218.729828,84.703316 
	C219.826187,85.310234 210.957672,93.354698 208.455444,92.951683 
	C205.635941,92.497566 206.321381,90.003563 205.310471,88.107887 
	C204.637115,87.545555 204.495483,87.110985 204.780884,86.323921 
z"/>
<path fill="#788A43" opacity="1.000000" stroke="none" 
	d="
M183.866089,86.299301 
	C181.923904,85.139015 181.911362,83.678299 181.921936,81.959709 
	C181.944946,78.222061 182.464951,74.442055 181.334457,70.730400 
	C188.755341,72.235497 193.589844,77.212685 193.683319,84.061714 
	C193.703476,85.538147 192.125519,87.550514 190.726730,88.419792 
	C188.204712,89.987114 186.096024,88.057823 183.866089,86.299301 
z"/>
<path fill="#788A44" opacity="1.000000" stroke="none" 
	d="
M232.891724,94.043060 
	C235.270355,94.594803 237.249512,95.139992 239.313034,95.708427 
	C237.701385,98.101311 236.351227,100.248596 234.853500,102.287476 
	C233.496628,104.134621 232.125931,106.463310 229.808823,106.730888 
	C227.037354,107.050949 222.871262,108.528397 221.686234,105.477638 
	C220.413635,102.201401 222.288071,98.396156 225.598236,96.284676 
	C227.629288,94.989105 229.999008,94.187790 232.891724,94.043060 
z"/>
<path fill="#788A43" opacity="1.000000" stroke="none" 
	d="
M191.330231,23.867199 
	C193.114944,26.730814 193.453979,29.321455 192.053818,32.102093 
	C190.987839,34.219051 190.502060,37.450115 187.436554,36.775570 
	C184.579163,36.146812 182.365067,33.950115 182.010498,30.574329 
	C181.517670,25.881832 183.710892,21.744690 184.499374,16.776131 
	C187.496307,18.697483 189.723984,20.689575 191.330231,23.867199 
z"/>
<path fill="#788C41" opacity="1.000000" stroke="none" 
	d="
M132.662720,54.831558 
	C137.370483,55.934151 139.568832,58.955608 140.604767,63.254723 
	C141.114578,65.370514 140.981445,66.456963 138.565384,67.248100 
	C134.213974,68.672974 129.955460,67.051041 128.045914,62.712872 
	C127.457428,61.375927 126.849464,60.047550 126.094917,58.398277 
	C125.187660,55.722893 127.413010,55.555828 128.803650,54.345497 
	C129.507019,54.093800 129.931427,54.065639 130.671906,54.089172 
	C131.440994,54.461090 131.988129,54.484337 132.662720,54.831558 
z"/>
<path fill="#383029" opacity="1.000000" stroke="none" 
	d="
M49.441132,179.234680 
	C48.497780,178.482620 47.907215,177.924286 47.119514,177.132156 
	C50.321468,165.147079 55.574322,154.070892 59.690010,142.223206 
	C60.803165,142.421387 61.677898,142.890106 62.788025,143.542984 
	C62.405693,155.297592 57.481556,165.565536 53.186386,176.012558 
	C52.570698,177.510056 52.495861,179.867798 49.441132,179.234680 
z"/>
<path fill="#788A44" opacity="1.000000" stroke="none" 
	d="
M225.105804,73.505615 
	C225.990982,75.984306 226.032776,78.794861 225.804810,81.614761 
	C225.561798,84.620331 227.035690,86.106133 229.920883,85.709106 
	C234.277435,85.109604 239.413391,86.628792 242.080582,81.091843 
	C242.976791,79.231316 244.982132,80.133217 246.824585,80.914024 
	C245.879272,87.228310 240.155991,87.272743 235.827881,88.796288 
	C233.311951,89.681915 230.196091,89.274529 227.421722,88.907776 
	C224.155441,88.475998 222.394928,86.860359 223.781708,83.012177 
	C224.823502,80.121338 223.082901,76.739395 225.105804,73.505615 
z"/>
<path fill="#798C45" opacity="1.000000" stroke="none" 
	d="
M154.860321,101.666321 
	C146.811386,102.432396 138.680801,101.307060 130.247833,100.079636 
	C138.506836,95.028221 146.708954,96.139061 154.860321,101.666321 
z"/>
<path fill="#2A231A" opacity="1.000000" stroke="none" 
	d="
M464.714478,208.216309 
	C465.619202,209.213120 466.174805,210.359085 466.870667,211.794052 
	C457.870422,213.050842 448.727600,214.367554 439.374664,211.749359 
	C439.095673,210.706573 439.052338,209.812500 438.996216,208.477737 
	C447.397705,211.726852 455.859955,211.713760 464.714478,208.216309 
z"/>
<path fill="#788E3E" opacity="1.000000" stroke="none" 
	d="
M169.659424,91.751022 
	C170.061188,91.956474 170.536942,92.032494 170.765381,92.108963 
	C171.703995,93.672951 173.120270,94.132957 174.779312,94.802017 
	C175.034683,94.992737 174.985764,95.011230 174.993011,94.986107 
	C175.150024,95.121445 175.299774,95.281906 175.624542,95.721199 
	C175.799591,96.000031 175.950073,96.429680 175.988525,96.654037 
	C177.143051,99.363007 177.520508,101.688515 174.314850,103.566269 
	C173.552277,103.861626 173.115875,103.903160 172.353012,103.896065 
	C170.620255,102.423927 168.720657,101.533775 167.062469,100.733948 
	C164.237152,99.371147 163.628464,97.207001 164.167542,94.892220 
	C164.688538,92.654991 166.588058,91.187637 169.659424,91.751022 
z"/>
<path fill="#79884B" opacity="1.000000" stroke="none" 
	d="
M172.420746,86.863235 
	C172.062515,85.624763 168.685669,84.230843 171.531464,83.530907 
	C177.143158,82.150673 175.301819,78.465561 174.392822,75.455887 
	C172.978546,70.773209 170.909576,66.288277 169.057007,61.349003 
	C175.739700,66.495537 178.627304,76.819359 176.073822,84.949379 
	C175.419754,87.031891 174.332397,86.976326 172.420746,86.863235 
z"/>
<path fill="#788C41" opacity="1.000000" stroke="none" 
	d="
M150.898926,118.404388 
	C153.272522,114.380463 153.455017,109.742363 156.758240,106.241318 
	C157.872116,105.876328 158.644348,106.185600 159.609375,106.821594 
	C160.161057,107.476471 160.495499,107.903404 160.935120,108.582214 
	C161.374435,109.326828 161.500092,109.886276 161.679626,110.730507 
	C159.462906,114.401161 156.820908,117.459198 152.453522,119.006348 
	C151.578339,119.392906 151.139740,119.305016 150.898926,118.404388 
z"/>
<path fill="#2F2319" opacity="1.000000" stroke="none" 
	d="
M373.332642,176.284271 
	C373.715942,176.825897 373.783691,177.146240 373.947388,177.951416 
	C365.171326,180.632950 356.169495,178.217545 346.839874,179.277649 
	C345.600922,178.061447 345.135895,176.749146 346.521912,175.184082 
	C352.454773,174.209610 358.257874,174.559433 363.990936,173.266815 
	C367.087494,172.568634 370.185577,174.500610 373.332642,176.284271 
z"/>
<path fill="#34281D" opacity="1.000000" stroke="none" 
	d="
M201.688889,107.928909 
	C200.635635,109.681824 198.865265,109.146935 196.888657,109.054779 
	C195.735458,104.949738 195.997650,100.817497 196.159515,96.694366 
	C196.204773,95.541466 196.341843,94.176857 197.915482,94.192322 
	C199.437180,94.207275 199.517365,95.567497 199.763275,96.700661 
	C200.551392,100.332253 198.646393,104.355156 201.688889,107.928909 
z"/>
<path fill="#79884B" opacity="1.000000" stroke="none" 
	d="
M169.818481,91.653366 
	C164.740860,95.030357 164.521729,96.934921 168.987961,100.448380 
	C170.007202,101.250198 170.817795,102.317230 171.875488,103.554817 
	C167.884216,103.802139 165.138672,101.818604 163.499283,98.014008 
	C162.932480,96.698624 161.838257,95.608856 160.974426,94.423698 
	C160.402390,93.638832 159.526703,92.269638 160.995117,92.213959 
	C165.262833,92.052124 163.716263,89.037285 163.966003,86.470535 
	C165.488220,85.671570 166.993973,85.808937 168.687866,86.700844 
	C167.567993,87.446373 164.921387,85.980667 165.070114,89.088470 
	C165.228271,92.393066 168.226898,90.279106 169.818481,91.653366 
z"/>
<path fill="#281B0F" opacity="1.000000" stroke="none" 
	d="
M50.457512,183.443909 
	C50.049114,183.135773 50.020451,182.942169 49.957848,182.456970 
	C50.482681,179.946442 52.274563,179.649017 54.102695,179.643936 
	C61.795784,179.622559 69.518448,178.809570 77.577423,180.199203 
	C79.784462,180.988831 80.132317,182.680115 80.124802,184.746796 
	C73.891548,183.055008 67.536079,184.426300 61.268875,184.033936 
	C57.795361,183.816467 54.314690,183.713196 50.457512,183.443909 
z"/>
<path fill="#35281D" opacity="1.000000" stroke="none" 
	d="
M229.761597,209.553497 
	C229.985519,210.626129 229.990158,211.337387 229.997040,212.402832 
	C224.185684,212.695786 218.250427,214.099640 212.354248,211.093140 
	C210.133881,209.630142 209.684723,208.041656 211.127899,205.668472 
	C212.323364,204.612640 213.774902,203.651535 214.477859,204.087509 
	C219.130920,206.973251 224.755005,206.840225 229.761597,209.553497 
z"/>
<path fill="#34281D" opacity="1.000000" stroke="none" 
	d="
M213.368744,205.572540 
	C212.732605,207.326202 212.435364,208.741882 212.091949,210.513107 
	C208.818924,211.026154 206.519608,208.512436 203.288467,207.801300 
	C203.420425,206.467834 204.162155,205.583389 205.706635,205.094162 
	C206.606339,205.014862 207.146255,204.847717 207.793137,204.205017 
	C208.545197,202.815689 209.090698,201.633286 209.840149,200.192261 
	C214.439041,199.507217 214.498795,202.076874 213.368744,205.572540 
z"/>
<path fill="#34281D" opacity="1.000000" stroke="none" 
	d="
M208.232727,113.739220 
	C205.877228,112.315918 205.168152,109.547546 203.226013,107.241692 
	C204.295578,103.886475 203.844513,100.526733 204.273758,97.094025 
	C204.974686,97.977348 205.533966,98.682175 206.317368,99.506744 
	C206.766342,99.556190 206.991226,99.485901 207.478607,99.644867 
	C208.145935,100.992569 207.356216,102.172569 207.935516,103.630119 
	C206.120148,107.223473 209.438950,110.229248 208.232727,113.739220 
z"/>
<path fill="#34281D" opacity="1.000000" stroke="none" 
	d="
M210.304108,119.830818 
	C208.843613,119.086769 207.621506,118.223366 207.996429,116.211258 
	C210.775955,116.925194 212.130356,114.268913 214.242920,113.629555 
	C215.666931,113.198608 217.369431,112.584900 218.200272,114.247711 
	C219.209000,116.266541 217.347122,116.597183 215.972855,117.168739 
	C214.156158,117.924301 212.400772,118.827316 210.304108,119.830818 
z"/>
<path fill="#34281D" opacity="1.000000" stroke="none" 
	d="
M208.800720,152.344910 
	C206.992859,143.059814 206.662247,133.306885 208.524933,123.294876 
	C209.920105,127.220665 208.693680,131.417328 208.874069,135.601151 
	C209.107819,141.022690 208.867203,146.464661 208.800720,152.344910 
z"/>
<path fill="#2F2214" opacity="1.000000" stroke="none" 
	d="
M189.830139,111.715431 
	C188.241867,112.813568 186.790207,114.512451 184.229126,113.984360 
	C186.354645,111.121704 182.853058,110.042915 182.208557,108.123985 
	C181.864243,107.098793 180.674026,105.976479 181.999908,105.067078 
	C182.960037,104.408546 183.830368,105.451996 184.502808,106.118134 
	C186.254684,107.853584 187.934265,109.662010 189.830139,111.715431 
z"/>
<path fill="#79884B" opacity="1.000000" stroke="none" 
	d="
M158.766632,55.637802 
	C158.048630,55.938629 157.073898,55.970577 156.102554,55.926956 
	C148.465469,55.584011 148.465668,55.579556 148.940918,63.625431 
	C146.894867,61.085949 145.355728,57.909794 144.030197,54.434986 
	C149.215256,53.132240 153.838425,54.631065 158.766632,55.637802 
z"/>
<path fill="#798C45" opacity="1.000000" stroke="none" 
	d="
M150.811005,117.785965 
	C151.248611,118.256561 151.490128,118.485367 151.919083,118.879456 
	C151.621124,120.123596 150.626801,119.896698 149.410660,119.998650 
	C147.062958,119.491966 145.043732,118.984489 143.242676,117.236656 
	C145.857849,112.716095 148.272720,114.604301 150.811005,117.785965 
z"/>
<path fill="#31271D" opacity="1.000000" stroke="none" 
	d="
M428.769226,117.828781 
	C425.329529,120.988693 422.040802,125.050499 416.269165,125.906174 
	C419.226288,121.985352 423.448425,119.390923 428.769226,117.828781 
z"/>
<path fill="#2F2214" opacity="1.000000" stroke="none" 
	d="
M51.404655,211.904419 
	C50.983318,210.832382 50.996910,209.798950 51.010536,208.377045 
	C53.799828,208.773834 56.589085,209.559082 60.580334,210.682739 
	C56.942966,212.413834 54.347828,211.890350 51.404655,211.904419 
z"/>
<path fill="#788A44" opacity="1.000000" stroke="none" 
	d="
M230.655029,64.095291 
	C230.552521,67.299095 230.701599,71.011803 225.630798,71.660767 
	C226.461502,68.877960 227.851181,66.181000 230.655029,64.095291 
z"/>
<path fill="#79884B" opacity="1.000000" stroke="none" 
	d="
M128.718185,54.060852 
	C128.517654,55.542564 127.657211,56.743755 126.189812,57.880722 
	C122.949989,59.395542 124.461273,56.065399 123.284805,55.508808 
	C123.819557,54.417660 124.049858,52.981800 125.930305,53.847832 
	C126.616005,54.163628 127.539009,53.964149 128.718185,54.060852 
z"/>
<path fill="#79884B" opacity="1.000000" stroke="none" 
	d="
M174.370956,103.879730 
	C174.643448,101.754791 175.298203,99.689507 175.989960,97.251305 
	C177.865891,99.640373 180.446655,102.536179 174.370956,103.879730 
z"/>
<path fill="#79884B" opacity="1.000000" stroke="none" 
	d="
M269.386108,90.055809 
	C269.586365,87.667206 270.434998,85.483467 273.751709,85.094322 
	C272.931152,86.945129 272.251892,89.286720 269.386108,90.055809 
z"/>
<path fill="#79884B" opacity="1.000000" stroke="none" 
	d="
M168.895996,60.698479 
	C166.691147,60.700661 164.557861,60.048931 163.147232,57.533867 
	C166.013489,56.279961 166.525574,59.933578 168.895996,60.698479 
z"/>
<path fill="#34281D" opacity="1.000000" stroke="none" 
	d="
M206.658325,99.723976 
	C206.982849,98.451866 207.235641,96.614723 208.823929,97.070244 
	C210.525864,97.558350 209.588516,99.187012 209.102890,100.654388 
	C208.325516,101.110992 207.786255,101.035500 207.199951,100.243431 
	C207.009079,100.016174 206.775162,99.821465 206.658325,99.723976 
z"/>
<path fill="#79884B" opacity="1.000000" stroke="none" 
	d="
M261.661621,62.095566 
	C262.595398,63.633121 263.218750,65.393562 263.939484,67.488670 
	C259.878387,67.580482 261.036133,64.743889 261.661621,62.095566 
z"/>
<path fill="#79884B" opacity="1.000000" stroke="none" 
	d="
M157.956589,83.389900 
	C160.047775,83.256790 162.043579,83.873543 163.768219,85.855446 
	C161.841232,85.759949 159.559555,85.716370 157.956589,83.389900 
z"/>
<path fill="#2A231A" opacity="1.000000" stroke="none" 
	d="
M492.320496,175.731750 
	C492.048676,175.047119 492.079346,174.321793 492.060638,173.381561 
	C493.196167,173.287369 495.018066,172.427856 495.271240,174.139938 
	C495.450073,175.349350 493.632965,175.317337 492.320496,175.731750 
z"/>
<path fill="#35281E" opacity="1.000000" stroke="none" 
	d="
M206.939453,100.282829 
	C207.496994,100.233887 207.984894,100.451607 208.707001,100.797874 
	C208.716187,101.755310 208.491165,102.584198 208.110199,103.695168 
	C206.955124,103.036392 206.491013,101.926277 206.939453,100.282829 
z"/>
<path fill="#79884B" opacity="1.000000" stroke="none" 
	d="
M174.907745,94.696716 
	C173.440292,94.827705 171.977417,94.437279 171.122406,92.485123 
	C172.256149,92.923859 173.518478,93.662277 174.907745,94.696716 
z"/>
<path fill="#788A44" opacity="1.000000" stroke="none" 
	d="
M234.639435,60.970570 
	C234.362839,62.485725 233.293167,63.514599 231.273651,63.896851 
	C231.788696,62.666790 232.664322,61.402386 234.639435,60.970570 
z"/>
<path fill="#778A41" opacity="1.000000" stroke="none" 
	d="
M204.724808,86.236450 
	C205.000458,86.454857 204.997375,86.871666 204.988708,87.600998 
	C204.908142,88.844383 204.833145,89.775246 204.721191,91.165039 
	C203.752853,89.303947 204.113983,87.868858 204.724808,86.236450 
z"/>
<path fill="#33281E" opacity="1.000000" stroke="none" 
	d="
M343.720093,151.175507 
	C343.592468,152.387726 342.792206,153.388809 341.053375,153.925003 
	C341.107452,152.610260 342.346558,152.044815 343.720093,151.175507 
z"/>
<path fill="#79884B" opacity="1.000000" stroke="none" 
	d="
M159.784668,106.741653 
	C159.062317,106.790848 158.298004,106.532166 157.263245,106.136513 
	C156.992783,105.999550 156.990097,105.501976 157.025986,104.715973 
	C157.955490,104.764572 158.849106,105.599167 159.784668,106.741653 
z"/>
<path fill="#33281E" opacity="1.000000" stroke="none" 
	d="
M339.813416,154.837189 
	C339.288605,155.427322 338.438324,156.107712 337.274109,156.887451 
	C337.802734,156.300354 338.645325,155.613892 339.813416,154.837189 
z"/>
<path fill="#33281E" opacity="1.000000" stroke="none" 
	d="
M345.718933,150.134659 
	C345.497040,150.300766 345.011932,150.547379 344.275208,150.898773 
	C344.500977,150.740753 344.978333,150.477966 345.718933,150.134659 
z"/>
<path fill="#79884B" opacity="1.000000" stroke="none" 
	d="
M161.864349,110.683304 
	C161.595291,110.459145 161.394058,109.923172 161.116577,109.110657 
	C161.337616,109.346565 161.634903,109.859024 161.864349,110.683304 
z"/>
<path fill="#2A231A" opacity="1.000000" stroke="none" 
	d="
M436.141846,204.991821 
	C436.026215,205.047775 435.985077,204.623184 435.967316,204.411163 
	C436.135559,204.340668 436.321594,204.482208 436.507629,204.623764 
	C436.424255,204.727798 436.340881,204.831833 436.141846,204.991821 
z"/>
<path fill="#798C45" opacity="1.000000" stroke="none" 
	d="
M156.229645,103.726303 
	C155.746582,103.481575 155.489288,102.975502 155.127991,102.204605 
	C155.302612,102.109650 155.581238,102.279518 155.945251,102.684830 
	C156.172226,103.101837 156.313828,103.283394 156.229645,103.726303 
z"/>
<path fill="#79884B" opacity="1.000000" stroke="none" 
	d="
M132.768341,54.743156 
	C132.361435,54.827919 131.897049,54.612755 131.210327,54.269226 
	C131.562286,54.241646 132.136597,54.342434 132.768341,54.743156 
z"/>
<path fill="#33281E" opacity="1.000000" stroke="none" 
	d="
M347.019592,149.963196 
	C346.962128,150.043228 346.778839,150.036728 346.320679,150.024261 
	C346.306793,149.824463 346.589417,149.777252 347.019592,149.963196 
z"/>
<path fill="#79884B" opacity="1.000000" stroke="none" 
	d="
M156.002060,103.993622 
	C156.008194,103.809753 156.012497,103.631844 156.023712,103.187103 
	C156.311188,103.099159 156.591736,103.278046 156.967087,103.693451 
	C157.061874,103.929985 156.981216,104.014259 156.940811,104.056335 
	C156.739014,104.192093 156.577606,104.285782 156.212067,104.187920 
	C156.007950,103.996361 156.000244,103.999580 156.002060,103.993622 
z"/>
<path fill="#2A231A" opacity="1.000000" stroke="none" 
	d="
M437.846130,206.827850 
	C437.751587,206.826874 437.548431,206.643555 437.204987,206.312103 
	C437.329651,206.266006 437.553894,206.426529 437.846130,206.827850 
z"/>
<path fill="#79884B" opacity="1.000000" stroke="none" 
	d="
M175.800690,95.751038 
	C175.605240,95.782478 175.422440,95.555634 175.125732,95.140244 
	C175.356201,95.009827 175.623367,95.190178 175.800690,95.751038 
z"/>
<path fill="#000000" opacity="1.000000" stroke="none" 
	d="
M77.802322,179.697433 
	C76.593216,182.169739 74.344543,181.968918 72.209755,181.986771 
	C65.097649,182.046249 57.985199,182.065536 50.398396,182.132797 
	C48.781586,181.584000 48.953243,180.546036 49.051140,179.293793 
	C53.596607,169.381653 56.593987,159.152771 60.348125,149.209198 
	C60.982960,147.527725 61.774323,145.905350 62.758392,143.991394 
	C67.884827,155.620712 72.746231,167.514267 77.802322,179.697433 
z"/>
<path fill="#000000" opacity="1.000000" stroke="none" 
	d="
M213.359863,206.030777 
	C212.183243,204.085938 211.336639,202.261337 210.267090,200.185211 
	C207.377380,188.648880 206.563812,177.304352 208.992340,165.440430 
	C209.004028,164.485153 209.050751,163.963272 209.507812,163.275833 
	C209.755707,162.603317 209.853088,162.150452 210.025330,161.358246 
	C213.837204,155.514252 218.527237,152.063187 225.629364,153.820114 
	C234.022644,155.896469 235.902023,160.335663 237.676300,170.248795 
	C239.309296,179.372574 238.596207,188.780045 236.751785,197.959152 
	C235.854828,202.423050 233.827927,206.344559 230.177521,209.672165 
	C223.845825,211.710495 218.512558,210.035767 213.359863,206.030777 
z"/>
<path fill="#34281D" opacity="1.000000" stroke="none" 
	d="
M209.522888,163.180695 
	C209.553192,163.567139 209.448074,164.078064 209.191071,164.806534 
	C209.155273,164.451096 209.271347,163.878143 209.522888,163.180695 
z"/>
<path fill="#36281E" opacity="1.000000" stroke="none" 
	d="
M207.742310,204.108307 
	C207.466446,204.344833 206.933182,204.691589 206.199524,205.019409 
	C206.494385,204.739838 206.989639,204.479187 207.742310,204.108307 
z"/>
<path fill="#000000" opacity="1.000000" stroke="none" 
	d="
M373.627136,176.296234 
	C365.888763,176.637497 358.129517,176.783356 350.369751,176.886658 
	C349.182678,176.902451 348.080536,176.512375 346.983398,175.282227 
	C347.826050,167.924881 349.025269,160.907013 352.983032,154.349976 
	C360.705811,147.358261 366.034241,148.672348 370.033386,158.246307 
	C371.762390,162.385574 371.964508,166.890381 373.045044,171.604523 
	C373.806366,172.729431 374.093506,173.569244 373.739929,174.900482 
	C373.598267,175.518585 373.586304,175.802094 373.627136,176.296234 
z"/>
<path fill="#2F2319" opacity="1.000000" stroke="none" 
	d="
M373.765106,174.989227 
	C373.464569,174.378464 373.287140,173.520523 373.107635,172.335358 
	C374.033295,172.728516 374.416107,173.604919 373.765106,174.989227 
z"/>
<path fill="#36281E" opacity="1.000000" stroke="none" 
	d="
M352.134949,150.908783 
	C352.154419,150.605240 352.308838,150.210480 352.463226,149.815704 
	C352.563263,149.906143 352.763153,150.049927 352.747803,150.078720 
	C352.610077,150.336517 352.434418,150.574066 352.134949,150.908783 
z"/>
<path fill="#788C41" opacity="1.000000" stroke="none" 
	d="
M156.165070,104.170166 
	C156.007950,103.996361 156.455017,104.044151 156.677704,104.071274 
	C156.900406,104.098404 156.947144,104.551041 156.966827,104.777725 
	C156.757446,104.791939 156.536011,104.571793 156.165070,104.170166 
z"/>
<path fill="#36281E" opacity="1.000000" stroke="none" 
	d="
M441.507263,210.504532 
	C441.502960,210.486740 441.511536,210.522324 441.507263,210.504532 
z"/>
</svg>